# xmcd CD database file
#
# Track frame offsets:
#	150
#	14592
#	28955
#	39171
#	53517
#	65022
#	78935
#	92507
#	106676
#	118157
#	133108
#
# Disc length: 1966 seconds
#
# Revision: 1
# Processed by: cddbd v1.5.2PL0 Copyright (c) Steve Scherf et al.
# Submitted via: CDex 1.51
#
DISCID=8807ac0b
DTITLE=Miles Davis - Ultimate Miles CD3-5
DYEAR=2008
DGENRE=Jazz
TTITLE0=Godchild
TTITLE1=Jeru
TTITLE2=Israel
TTITLE3=Venus De Milo
TTITLE4=Budo
TTITLE5=Deception
TTITLE6=Boplicity
TTITLE7=Rocker
TTITLE8=Move
TTITLE9=Moon Dreams
TTITLE10=Rouge
EXTD=YEAR: 2008
EXTT0=
EXTT1=
EXTT2=
EXTT3=
EXTT4=
EXTT5=
EXTT6=
EXTT7=
EXTT8=
EXTT9=
EXTT10=
PLAYORDER=
